<svg xmlns="http://www.w3.org/2000/svg" version="1.1" xmlns:xlink="http://www.w3.org/1999/xlink" xmlns:svgjs="http://svgjs.dev/svgjs" width="1500" height="1500" viewBox="0 0 1500 1500"><rect width="1500" height="1500" fill="#ffffff"></rect><g transform="matrix(0.6666666666666666,0,0,0.6666666666666666,249.39436519522388,621.7552771221527)"><svg viewBox="0 0 396 101" data-background-color="#3a3d53" preserveAspectRatio="xMidYMid meet" height="382" width="1500" xmlns="http://www.w3.org/2000/svg" xmlns:xlink="http://www.w3.org/1999/xlink"><g id="tight-bounds" transform="matrix(1,0,0,1,0.24008861730862918,0.3615661698448207)"><svg viewBox="0 0 395.52 100.27697959980478" height="100.27697959980478" width="395.52"><g><svg viewBox="0 0 395.52 100.27697959980478" height="100.27697959980478" width="395.52"><g><svg viewBox="0 0 395.52 100.27697959980478" height="100.27697959980478" width="395.52"><g id="textblocktransform"><svg viewBox="0 0 395.52 100.27697959980478" height="100.27697959980478" width="395.52" id="textblock"><g><svg viewBox="0 0 395.52 100.27697959980478" height="100.27697959980478" width="395.52"><path d="M394.594 21.507C392.735 11.099 387.435 8.205 387.435 8.205 371.165-2.516 350.86-0.205 332.619 1.335 300.414 1.398 268.339 3.688 236.208 4.916 168.767 5.103 100.749 2.022 33.643 9.621 27.339 11.952-6.54 10.079 1.121 22.84 3.129 28.148 10.456 34.04 10.232 38.911 11.236 39.764 12.631 37.808 13.226 39.036 15.309 42.346 18.711 40.784 21.501 42.741 17.614 47.966 20.403 52.317 23.062 56.876 18.377 58.063 12.371 57.501 9.675 61.435 9.396 64.287 7.89 63.746 6.235 63.621 5.026 63.538 2.59 63.85 2.999 64.745 4.394 67.805-1.594 69.575 2.162 72.573-0.422 75.82 3.948 78.631 3.353 82.149 3.278 82.856 3.687 83.46 4.338 83.627 7.22 84.522 3.018 86.271 3.464 88.165 33.029 101.113 65.104 92.162 95.394 98.116 103.259 93.952 97.346 99.594 100.489 98.719 102.943 97.699 104.728 101.925 107.499 99.531 107.927 98.844 107.276 97.22 108.8 97.533 109.6 97.699 110.307 97.658 110.418 96.7 110.586 95.264 109.117 96.159 108.726 95.409 112.947 91.621 111.906 100.635 115.866 100.26 115.68 99.157 114.528 97.574 116.889 97.783 119.232 96.2 119.306 94.889 121.389 98.449 121.463 99.219 121.835 99.76 122.43 100.135 128.938 96.263 135.409 101.509 142.233 99.76 146.417 97.845 150.433 100.801 154.672 100.072 156.16 99.49 157.666 98.449 159.098 100.197 176.632 100.572 195.319 99.011 211.943 100.26 256.364 97.928 303.836 101.217 350.674 98.136 361.719 96.95 373.192 95.264 383.958 93.911 383.958 93.911 392.679 90.205 392.679 73.551S394.538 58.979 394.817 45.718C395.096 32.457 396.398 31.916 394.538 21.507Z" opacity="1" fill="#000000" data-fill-palette-color="tertiary"></path><g transform="matrix(1,0,0,1,55.76832,26.230666666666668)"><svg width="283.98335999999995" viewBox="3 -39.25 307.32 51.75" height="47.81564626647144" data-palette-color="#3a3d53"><path d="M15.1 0Q11.45 0 8.72-1.5 6-3 4.55-5.53 3.1-8.05 3.1-10.95L3.1-10.95Q3.1-13.45 5.55-13.45L5.55-13.45Q8-13.45 8.1-11.3L8.1-11.3Q8.15-8.1 10.2-6.3 12.25-4.5 15.1-4.5L15.1-4.5Q17.75-4.5 19.53-5.73 21.3-6.95 21.3-9.25L21.3-9.25Q21.3-11 20.3-12.13 19.3-13.25 17.73-13.95 16.15-14.65 13.65-15.4L13.65-15.4Q10.85-16.2 8.72-17.07 6.6-17.95 4.8-19.98 3-22 3-25.25L3-25.25Q3-28.2 4.55-30.5 6.1-32.8 8.75-34.1 11.4-35.4 14.5-35.4L14.5-35.4Q17.75-35.4 20.38-34 23-32.6 24.5-30.33 26-28.05 26-25.5L26-25.5Q26-24.2 25.4-23.63 24.8-23.05 23.6-23.05L23.6-23.05Q22.3-23.05 21.78-23.6 21.25-24.15 21.1-25.25L21.1-25.25Q21-27.6 19.2-29.25 17.4-30.9 14.5-30.9L14.5-30.9Q11.65-30.9 9.83-29.3 8-27.7 8-25.2L8-25.2Q8-23.6 8.95-22.63 9.9-21.65 11.35-21.08 12.8-20.5 15.9-19.55L15.9-19.55Q18.55-18.75 20.68-17.73 22.8-16.7 24.53-14.63 26.25-12.55 26.25-9.35L26.25-9.35Q26.25-6.55 24.8-4.42 23.35-2.3 20.8-1.15 18.25 0 15.1 0L15.1 0ZM54.5-19Q55.15-16.25 55.42-12.08 55.7-7.9 55.7-1.95L55.7-1.95Q55.7-1.15 54.97-0.6 54.25-0.05 53.2-0.05L53.2-0.05Q52.15-0.05 51.45-0.6 50.75-1.15 50.75-2.2L50.75-2.2Q50.75-14.8 49.75-18.35L49.75-18.35Q49.25-20.15 48.25-20.93 47.25-21.7 45.7-21.7L45.7-21.7Q42.25-21.7 40.42-18.93 38.6-16.15 38.6-12.35L38.6-12.35 38.6-1.9Q38.6-1.1 37.9-0.6 37.2-0.1 36.15-0.1L36.15-0.1Q35.05-0.1 34.35-0.63 33.65-1.15 33.65-1.95L33.65-1.95Q33.65-12.05 33.9-21.3L33.9-21.3Q34.1-28.45 34.7-37.1L34.7-37.1Q34.85-39.25 37.15-39.25L37.15-39.25Q38.25-39.25 38.87-38.78 39.5-38.3 39.45-37.4L39.45-37.4 38.95-27.8 38.65-22.3Q39.85-23.85 41.8-24.85 43.75-25.85 46.5-25.85L46.5-25.85Q49.8-25.85 51.7-24.18 53.6-22.5 54.5-19L54.5-19ZM72.75 0.1Q66.85 0.1 63.12-3.03 59.4-6.15 59.4-12.4L59.4-12.4Q59.4-16.35 60.97-19.4 62.55-22.45 65.47-24.15 68.4-25.85 72.4-25.85L72.4-25.85Q76.3-25.85 79.37-24.2 82.45-22.55 84.17-19.48 85.9-16.4 85.9-12.3L85.9-12.3Q85.9-6.3 82.3-3.1 78.7 0.1 72.75 0.1L72.75 0.1ZM72.65-3.85Q76.35-3.85 78.65-6.03 80.95-8.2 80.95-12.4L80.95-12.4Q80.95-15.1 79.92-17.28 78.9-19.45 76.97-20.68 75.05-21.9 72.55-21.9L72.55-21.9Q68.85-21.9 66.62-19.33 64.4-16.75 64.4-12.45L64.4-12.45Q64.4-8.05 66.75-5.95 69.1-3.85 72.65-3.85L72.65-3.85ZM104.14-25.65Q107.59-25.65 110.37-24.18 113.14-22.7 114.77-19.78 116.39-16.85 116.39-12.8L116.39-12.8Q116.39-8.8 114.82-5.88 113.24-2.95 110.42-1.43 107.59 0.1 103.99 0.1L103.99 0.1Q101.34 0.1 99.07-0.6 96.79-1.3 95.79-2L95.79-2 95.74 0.7 95.49 9.25Q95.44 10.15 94.77 10.68 94.09 11.2 92.94 11.2L92.94 11.2Q91.79 11.2 91.14 10.6 90.49 10 90.54 9.05L90.54 9.05Q90.84 2.95 90.89-2.6L90.89-2.6 90.94-6.1Q91.04-12.4 91.04-17.35L91.04-17.35Q91.04-18.8 90.72-19.73 90.39-20.65 89.79-21.4L89.79-21.4Q89.74-21.5 89.44-21.8 89.14-22.1 89.14-22.6L89.14-22.6Q89.14-23.45 90.12-24.2 91.09-24.95 91.94-24.9L91.94-24.9Q92.54-24.85 92.94-24.45L92.94-24.45Q93.34-24.1 93.94-23.25 94.54-22.4 94.94-21.5L94.94-21.5Q96.09-23.15 98.47-24.4 100.84-25.65 104.14-25.65L104.14-25.65ZM103.64-3.85Q107.14-3.85 109.27-6.2 111.39-8.55 111.39-12.85L111.39-12.85Q111.39-17.25 109.29-19.4 107.19-21.55 103.84-21.55L103.84-21.55Q101.54-21.55 99.77-20.55 97.99-19.55 97.02-18.23 96.04-16.9 96.04-16L96.04-16Q96.04-10.55 95.99-6.75L95.99-6.75Q96.19-6.25 97.39-5.55 98.59-4.85 100.29-4.35 101.99-3.85 103.64-3.85L103.64-3.85ZM135.19-25.65Q138.64-25.65 141.42-24.18 144.19-22.7 145.82-19.78 147.44-16.85 147.44-12.8L147.44-12.8Q147.44-8.8 145.87-5.88 144.29-2.95 141.47-1.43 138.64 0.1 135.04 0.1L135.04 0.1Q132.39 0.1 130.12-0.6 127.84-1.3 126.84-2L126.84-2 126.79 0.7 126.54 9.25Q126.49 10.15 125.82 10.68 125.14 11.2 123.99 11.2L123.99 11.2Q122.84 11.2 122.19 10.6 121.54 10 121.59 9.05L121.59 9.05Q121.89 2.95 121.94-2.6L121.94-2.6 121.99-6.1Q122.09-12.4 122.09-17.35L122.09-17.35Q122.09-18.8 121.77-19.73 121.44-20.65 120.84-21.4L120.84-21.4Q120.79-21.5 120.49-21.8 120.19-22.1 120.19-22.6L120.19-22.6Q120.19-23.45 121.17-24.2 122.14-24.95 122.99-24.9L122.99-24.9Q123.59-24.85 123.99-24.45L123.99-24.45Q124.39-24.1 124.99-23.25 125.59-22.4 125.99-21.5L125.99-21.5Q127.14-23.15 129.52-24.4 131.89-25.65 135.19-25.65L135.19-25.65ZM134.69-3.85Q138.19-3.85 140.32-6.2 142.44-8.55 142.44-12.85L142.44-12.85Q142.44-17.25 140.34-19.4 138.24-21.55 134.89-21.55L134.89-21.55Q132.59-21.55 130.82-20.55 129.04-19.55 128.07-18.23 127.09-16.9 127.09-16L127.09-16Q127.09-10.55 127.04-6.75L127.04-6.75Q127.24-6.25 128.44-5.55 129.64-4.85 131.34-4.35 133.04-3.85 134.69-3.85L134.69-3.85ZM158.09-27.55Q156.54-27.55 155.54-28.58 154.54-29.6 154.54-31.15L154.54-31.15Q154.54-32.65 155.56-33.65 156.59-34.65 158.19-34.65L158.19-34.65Q159.79-34.65 160.76-33.7 161.74-32.75 161.74-31.2L161.74-31.2Q161.74-29.65 160.71-28.6 159.69-27.55 158.09-27.55L158.09-27.55ZM157.39-0.3Q156.24-0.3 155.54-0.85 154.84-1.4 154.84-2.4L154.84-2.4 155.34-22.7Q155.34-23.7 156.04-24.28 156.74-24.85 157.84-24.85L157.84-24.85Q158.94-24.85 159.66-24.25 160.39-23.65 160.39-22.65L160.39-22.65 159.89-2.35Q159.84-1.35 159.16-0.83 158.49-0.3 157.39-0.3L157.39-0.3ZM181.79-25.5Q186.04-25.5 188.26-22.48 190.49-19.45 190.49-13.45L190.49-13.45 190.49-1.9Q190.49-0.95 189.84-0.48 189.19 0 188.09 0L188.09 0Q186.99 0 186.24-0.45 185.49-0.9 185.49-1.8L185.49-1.8 185.54-13.5Q185.54-17.65 184.61-19.53 183.69-21.4 181.34-21.4L181.34-21.4Q176.84-21.4 175.49-14.2L175.49-14.2Q175.04-12 175.04-8.9L175.04-8.9 175.09-1.8Q175.09-0.9 174.44-0.43 173.79 0.05 172.69 0.05L172.69 0.05Q171.49 0.05 170.81-0.48 170.14-1 170.14-1.8L170.14-1.8Q170.14-6.8 169.94-13.4L169.94-13.4Q169.84-17.3 169.84-18.8L169.84-18.8Q169.79-19.9 169.51-20.53 169.24-21.15 168.49-22.4L168.49-22.4Q168.29-22.9 168.29-23.25L168.29-23.25Q168.29-24 169.14-24.65 169.99-25.3 170.79-25.3L170.79-25.3Q171.64-25.3 172.44-24.2L172.44-24.2Q173.79-22.25 173.79-20.65L173.79-20.65 173.79-20.05Q174.69-22.4 176.61-23.95 178.54-25.5 181.79-25.5L181.79-25.5ZM219.78-8.55L219.98-7.15Q220.38-4.5 220.56-3 220.73-1.5 220.73-0.1L220.73-0.1Q220.73 3.6 219.21 6.45 217.68 9.3 214.91 10.9 212.13 12.5 208.48 12.5L208.48 12.5Q205.68 12.5 203.33 11.4 200.98 10.3 199.58 8.4 198.18 6.5 198.18 4.3L198.18 4.3Q198.18 2.4 200.53 2.4L200.53 2.4Q202.03 2.4 202.33 3.85L202.33 3.85Q202.83 6.15 204.41 7.28 205.98 8.4 208.38 8.4L208.38 8.4Q211.98 8.4 213.91 6.2 215.83 4 215.83-0.2L215.83-0.2Q215.83-1.55 215.58-3.2L215.58-3.2Q214.43-1.8 212.46-0.93 210.48-0.05 207.93-0.05L207.93-0.05Q204.33-0.05 201.56-1.73 198.78-3.4 197.28-6.25 195.78-9.1 195.78-12.45L195.78-12.45Q195.78-15.9 197.26-18.85 198.73-21.8 201.46-23.53 204.18-25.25 207.68-25.25L207.68-25.25Q211.58-25.25 213.83-23.3L213.83-23.3Q214.03-23.9 214.73-25.5L214.73-25.5Q215.23-26.5 216.38-26.5L216.38-26.5Q217.33-26.5 218.21-25.98 219.08-25.45 219.13-24.65L219.13-24.65Q219.13-24.3 219.08-24.15L219.08-24.15Q218.23-21.45 218.08-20.75L218.08-20.75 219.78-8.55ZM208.18-4.25Q210.38-4.25 212.46-5.45 214.53-6.65 214.93-8.05L214.93-8.05Q214.63-10.9 213.78-15.9L213.78-15.9Q213.73-16.4 213.38-18.45L213.38-18.45Q212.93-19.4 211.41-20.25 209.88-21.1 207.98-21.1L207.98-21.1Q205.88-21.1 204.23-19.98 202.58-18.85 201.66-16.88 200.73-14.9 200.73-12.5L200.73-12.5Q200.73-9.05 202.66-6.65 204.58-4.25 208.18-4.25L208.18-4.25ZM236.13 0.1Q231.48 0.1 229.36-0.85 227.23-1.8 226.56-4.1 225.88-6.4 225.88-11.3L225.88-11.3Q225.88-16.85 226.41-21.98 226.93-27.1 227.93-33.25L227.93-33.25Q228.08-34.15 228.78-34.68 229.48-35.2 230.58-35.2L230.58-35.2Q231.78-35.2 232.36-34.63 232.93-34.05 232.93-33.05L232.93-33.05Q232.93-32.65 232.88-32.45L232.88-32.45Q231.63-24.6 231.16-20.38 230.68-16.15 230.68-11.15L230.68-11.15Q230.68-8.15 230.98-6.8 231.28-5.45 232.28-4.9 233.28-4.35 235.48-4.3L235.48-4.3Q239.83-4.3 246.13-5.65L246.13-5.65Q246.33-5.7 246.68-5.7L246.68-5.7Q247.63-5.7 248.16-5.03 248.68-4.35 248.68-3.45L248.68-3.45Q248.68-2.4 248.03-1.83 247.38-1.25 246.03-1L246.03-1Q240.68 0.1 236.13 0.1L236.13 0.1ZM258.43-27.55Q256.88-27.55 255.88-28.58 254.88-29.6 254.88-31.15L254.88-31.15Q254.88-32.65 255.9-33.65 256.93-34.65 258.53-34.65L258.53-34.65Q260.13-34.65 261.1-33.7 262.08-32.75 262.08-31.2L262.08-31.2Q262.08-29.65 261.05-28.6 260.03-27.55 258.43-27.55L258.43-27.55ZM257.73-0.3Q256.58-0.3 255.88-0.85 255.18-1.4 255.18-2.4L255.18-2.4 255.68-22.7Q255.68-23.7 256.38-24.28 257.08-24.85 258.18-24.85L258.18-24.85Q259.28-24.85 260-24.25 260.73-23.65 260.73-22.65L260.73-22.65 260.23-2.35Q260.18-1.35 259.5-0.83 258.83-0.3 257.73-0.3L257.73-0.3ZM278.23 0.3Q274.78 0.3 272.28-1.35 269.78-3 268.53-5.65L268.53-5.65Q268.18-6.35 268.18-6.75L268.18-6.75Q268.23-7.6 269.13-8.28 270.03-8.95 270.93-8.85L270.93-8.85Q271.43-8.75 271.7-8.47 271.98-8.2 272.48-7.55L272.48-7.55Q273.83-5.7 275.05-4.73 276.28-3.75 278.28-3.75L278.28-3.75Q280.13-3.75 281.38-4.65 282.63-5.55 282.63-6.9L282.63-6.9Q282.63-8.35 281.33-9.13 280.03-9.9 277.23-10.9L277.23-10.9Q274.63-11.75 272.98-12.58 271.33-13.4 270.15-14.88 268.98-16.35 268.98-18.65L268.98-18.65Q268.98-20.75 270.15-22.48 271.33-24.2 273.43-25.18 275.53-26.15 278.18-26.15L278.18-26.15Q280.88-26.15 282.93-25.13 284.98-24.1 286.08-22.4 287.18-20.7 287.18-18.7L287.18-18.7Q287.18-17.55 286.65-17.03 286.13-16.5 284.93-16.5L284.93-16.5Q283.73-16.5 283.33-16.93 282.93-17.35 282.88-18.05L282.88-18.05Q282.68-20 281.5-21.03 280.33-22.05 278.18-22.05L278.18-22.05Q275.93-22.05 274.9-21.03 273.88-20 273.88-18.75L273.88-18.75Q273.88-17.25 275.2-16.45 276.53-15.65 279.43-14.65L279.43-14.65Q282.03-13.75 283.65-12.95 285.28-12.15 286.43-10.73 287.58-9.3 287.58-7.05L287.58-7.05Q287.58-4.65 286.25-3 284.93-1.35 282.78-0.53 280.63 0.3 278.23 0.3L278.23 0.3ZM308.17-8.75Q309.32-8.75 309.82-8.25 310.32-7.75 310.32-6.55L310.32-6.55Q310.32-3.7 308.47-1.83 306.62 0.05 303.77 0.05L303.77 0.05Q299.82 0.05 298.07-3.33 296.32-6.7 296.32-13.9L296.32-13.9Q296.32-16.45 296.47-19L296.47-19 294.07-19.15Q292.12-19.25 292.12-21.2L292.12-21.2Q292.12-22.2 292.65-22.68 293.17-23.15 294.37-23.1L294.37-23.1 296.82-22.95Q297.12-26.1 297.97-31.7L297.97-31.7Q298.27-33.5 300.42-33.5L300.42-33.5Q301.67-33.5 302.35-32.85 303.02-32.2 302.92-31.3L302.92-31.3Q302.22-26.95 301.72-22.7L301.72-22.7Q304.42-22.6 305.27-22.6L305.27-22.6Q306.22-22.6 306.67-22.18 307.12-21.75 307.12-20.85L307.12-20.85Q307.12-19.75 306.65-19.33 306.17-18.9 304.92-18.85L304.92-18.85 301.37-18.85Q301.22-16.45 301.22-13.9L301.22-13.9Q301.22-8.85 301.87-6.43 302.52-4 304.17-4L304.17-4Q306.07-4 306.22-6.95L306.22-6.95Q306.22-7.85 306.65-8.3 307.07-8.75 308.17-8.75L308.17-8.75Z" opacity="1" transform="matrix(1,0,0,1,0,0)" fill="#ffffff" class="wordmark-text-0" data-fill-palette-color="quaternary" id="text-0"></path></svg></g></svg></g></svg></g></svg></g><g></g></svg></g><defs></defs></svg><rect width="395.52" height="100.27697959980478" fill="none" stroke="none" visibility="hidden"></rect></g></svg></g></svg>